<?xml version="1.0" encoding="utf-8"?>
<!-- Generator: Adobe Illustrator 16.0.0, SVG Export Plug-In . SVG Version: 6.00 Build 0)  -->
<!DOCTYPE svg PUBLIC "-//W3C//DTD SVG 1.1//EN" "http://www.w3.org/Graphics/SVG/1.1/DTD/svg11.dtd">
<svg version="1.1" id="Layer_1" xmlns="http://www.w3.org/2000/svg" xmlns:xlink="http://www.w3.org/1999/xlink" x="0px" y="0px"
	 width="52.8px" height="52.497px" viewBox="73.6 13.751 52.8 52.497" enable-background="new 73.6 13.751 52.8 52.497"
	 xml:space="preserve">
<title>05</title>
<g>
	<path fill="#FFFFFF" d="M117.279,15.84c-5.639-1.473-11.451-2.173-17.279-2.08c-5.828-0.093-11.641,0.607-17.28,2.08
		c-6,1.76-9.12,4.4-9.12,7.84v32.64c0,3.439,3.04,6.08,9.12,7.84c5.639,1.473,11.452,2.173,17.28,2.08
		c5.828,0.093,11.641-0.607,17.279-2.08c6-1.76,9.121-4.4,9.121-7.84V23.68C126.32,20.24,123.279,17.6,117.279,15.84z M120,39.28
		c-1.359,1.44-8.8,3.84-20,3.84s-18.64-2.4-19.92-3.92v-8.56l2.72,0.96c5.617,1.439,11.403,2.112,17.2,2
		c5.828,0.093,11.641-0.607,17.279-2.08L120,30.56V39.28z M100,20.16c10.4,0,17.52,2.08,19.6,3.52c-2.08,1.44-9.199,3.52-19.6,3.52
		c-10.4,0-17.52-2.08-19.6-3.52C82.48,22.24,89.6,20.16,100,20.16z M100,59.92c-11.2,0-18.64-2.4-19.92-3.92v-9.44l2.72,0.96
		c5.617,1.439,11.403,2.112,17.2,2c5.828,0.093,11.641-0.607,17.279-2.08L120,46.48V56c-1.359,1.439-8.8,3.84-20,3.84V59.92z"/>
</g>
</svg>
