<?xml version="1.0" encoding="utf-8"?>
<!-- Generator: Adobe Illustrator 16.0.0, SVG Export Plug-In . SVG Version: 6.00 Build 0)  -->
<!DOCTYPE svg PUBLIC "-//W3C//DTD SVG 1.1//EN" "http://www.w3.org/Graphics/SVG/1.1/DTD/svg11.dtd">
<svg version="1.1" id="Layer_1" xmlns="http://www.w3.org/2000/svg" xmlns:xlink="http://www.w3.org/1999/xlink" x="0px" y="0px"
	 width="71.013px" height="74.055px" viewBox="64.5 2.987 71.013 74.055" enable-background="new 64.5 2.987 71.013 74.055"
	 xml:space="preserve">
<g>
	<g>
		<g>
			<path d="M130.789,18.969c-1.078,0.484-2.133,1.031-3.203,1.539c-2.578,1.242-5.156,2.484-7.734,3.727
				c-3.109,1.5-6.227,3-9.336,4.5c-2.703,1.305-5.406,2.602-8.109,3.906c-1.312,0.633-2.633,1.242-3.938,1.898
				c-0.016,0.008-0.039,0.016-0.055,0.031c1.055,0,2.102,0,3.156,0c-1.078-0.516-2.156-1.039-3.234-1.555
				c-2.586-1.242-5.172-2.492-7.758-3.734c-3.109-1.5-6.227-3-9.336-4.5c-2.695-1.297-5.391-2.594-8.086-3.898
				c-1.297-0.625-2.586-1.281-3.898-1.875c-0.023-0.008-0.039-0.023-0.062-0.031c0,1.797,0,3.602,0,5.398
				c1.078-0.516,2.156-1.039,3.234-1.555c2.578-1.242,5.148-2.484,7.727-3.719c3.109-1.5,6.227-3,9.336-4.5
				c2.703-1.305,5.398-2.602,8.102-3.906c1.305-0.625,2.625-1.234,3.914-1.891c0.016-0.008,0.039-0.016,0.055-0.023
				c-1.055,0-2.102,0-3.156,0c1.078,0.516,2.156,1.039,3.234,1.555c2.578,1.242,5.148,2.484,7.727,3.719
				c3.109,1.5,6.227,3,9.336,4.5c2.703,1.305,5.398,2.602,8.102,3.906c1.305,0.633,2.609,1.266,3.914,1.891
				c0.016,0.008,0.039,0.016,0.055,0.023c0.766,0.367,1.562,0.547,2.406,0.312c0.727-0.203,1.508-0.758,1.867-1.438
				c0.383-0.727,0.578-1.602,0.312-2.406c-0.242-0.742-0.711-1.516-1.438-1.867c-1.078-0.516-2.156-1.039-3.234-1.555
				c-2.594-1.25-5.195-2.5-7.789-3.75c-3.125-1.508-6.25-3.008-9.375-4.516c-2.688-1.297-5.383-2.594-8.07-3.891
				c-1.289-0.617-2.562-1.25-3.859-1.859c-0.664-0.312-1.289-0.492-2.031-0.391c-0.438,0.062-0.812,0.203-1.211,0.391
				c-0.141,0.062-0.281,0.133-0.422,0.203c-0.672,0.32-1.344,0.648-2.008,0.969c-2.438,1.172-4.883,2.352-7.32,3.523
				c-3.109,1.5-6.219,2.992-9.328,4.492c-2.805,1.352-5.617,2.703-8.422,4.055c-1.539,0.742-3.07,1.477-4.609,2.219
				c-0.07,0.031-0.141,0.07-0.219,0.102c-0.969,0.469-1.547,1.664-1.547,2.695c0,1.016,0.578,2.258,1.547,2.695
				c1.086,0.492,2.148,1.031,3.219,1.555c2.594,1.25,5.188,2.5,7.773,3.75c3.125,1.508,6.25,3.008,9.367,4.516
				c2.695,1.297,5.383,2.594,8.078,3.891c1.297,0.625,2.578,1.258,3.883,1.867c0.664,0.312,1.289,0.492,2.031,0.391
				c0.438-0.062,0.812-0.203,1.211-0.391c0.141-0.062,0.281-0.133,0.422-0.203c0.672-0.32,1.336-0.648,2.008-0.969
				c2.438-1.172,4.883-2.352,7.32-3.523c3.117-1.5,6.242-3.008,9.359-4.508c2.812-1.352,5.625-2.711,8.438-4.062
				c1.523-0.734,3.047-1.469,4.562-2.203c0.07-0.031,0.141-0.07,0.219-0.102c0.672-0.305,1.25-1.188,1.438-1.867
				c0.203-0.75,0.109-1.742-0.312-2.406c-0.43-0.664-1.07-1.258-1.867-1.438c-0.273-0.039-0.555-0.078-0.828-0.109
				C131.805,18.539,131.281,18.688,130.789,18.969z"/>
		</g>
	</g>
	<g>
		<g>
			<path d="M82.234,16.57c1.078,0.516,2.156,1.039,3.234,1.555c2.578,1.242,5.148,2.484,7.727,3.719c3.109,1.5,6.227,3,9.336,4.5
				c2.703,1.305,5.398,2.602,8.102,3.906c1.305,0.633,2.609,1.266,3.914,1.891c0.016,0.008,0.039,0.016,0.055,0.023
				c0.766,0.367,1.562,0.547,2.406,0.312c0.727-0.203,1.508-0.758,1.867-1.438c0.383-0.727,0.578-1.602,0.312-2.406
				c-0.242-0.742-0.711-1.516-1.438-1.867c-1.078-0.516-2.156-1.039-3.234-1.555c-2.578-1.242-5.148-2.484-7.727-3.719
				c-3.109-1.5-6.227-3-9.336-4.5c-2.703-1.305-5.398-2.602-8.102-3.906c-1.305-0.633-2.609-1.266-3.914-1.891
				c-0.016-0.008-0.039-0.016-0.055-0.023c-0.766-0.367-1.562-0.547-2.406-0.312c-0.727,0.203-1.508,0.758-1.867,1.438
				c-0.383,0.727-0.578,1.602-0.312,2.406C81.039,15.438,81.508,16.219,82.234,16.57L82.234,16.57z"/>
		</g>
	</g>
	<g>
		<g>
			<path d="M130.789,55.641c-1.078,0.516-2.156,1.039-3.234,1.555c-2.578,1.242-5.148,2.484-7.727,3.719
				c-3.109,1.5-6.227,3-9.336,4.5c-2.703,1.305-5.398,2.602-8.102,3.906c-1.305,0.625-2.625,1.234-3.914,1.891
				c-0.016,0.008-0.039,0.016-0.055,0.023c1.055,0,2.102,0,3.156,0c-1.078-0.516-2.156-1.039-3.234-1.555
				c-2.578-1.242-5.148-2.484-7.727-3.719c-3.109-1.5-6.227-3-9.336-4.5c-2.703-1.305-5.398-2.602-8.102-3.906
				c-1.305-0.625-2.602-1.289-3.914-1.891c-0.016-0.008-0.039-0.016-0.055-0.023c0,1.797,0,3.602,0,5.398
				c0.008,0,0.008-0.008,0.016-0.008c0.969-0.438,1.547-1.688,1.547-2.695c0-1.219,0-2.43,0-3.648c0-2.922,0-5.844,0-8.766
				c0-3.523,0-7.039,0-10.562c0-3.055,0-6.109,0-9.164c0-1.484,0.031-2.977,0-4.461c0-0.023,0-0.039,0-0.062
				c-1.57,0.898-3.133,1.797-4.703,2.695c1.078,0.516,2.156,1.039,3.234,1.555c2.594,1.25,5.195,2.5,7.789,3.75
				c3.125,1.508,6.25,3.008,9.367,4.516c2.688,1.297,5.375,2.594,8.07,3.883c1.289,0.617,2.562,1.25,3.859,1.859
				c0.664,0.312,1.289,0.492,2.031,0.391c0.438-0.062,0.812-0.203,1.211-0.391c0.141-0.062,0.281-0.133,0.422-0.203
				c0.672-0.32,1.336-0.648,2.008-0.969c2.438-1.172,4.883-2.352,7.32-3.523c3.109-1.5,6.219-2.992,9.32-4.492
				c2.805-1.352,5.609-2.703,8.422-4.055c1.531-0.742,3.07-1.477,4.602-2.219c0.07-0.031,0.141-0.07,0.219-0.102
				c-1.57-0.898-3.133-1.797-4.703-2.695c0,1.219,0,2.43,0,3.648c0,2.922,0,5.844,0,8.766c0,3.523,0,7.039,0,10.562
				c0,3.055,0,6.109,0,9.164c0,1.484-0.023,2.977,0,4.461c0,0.023,0,0.039,0,0.062c0,1.008,0.578,2.258,1.547,2.695
				c0.008,0,0.008,0.008,0.016,0.008c0.789,0.359,1.539,0.555,2.406,0.312c0.727-0.203,1.508-0.758,1.867-1.438
				c0.383-0.727,0.578-1.602,0.312-2.406c-0.234-0.727-0.711-1.539-1.438-1.867c-0.008,0-0.008-0.008-0.016-0.008
				c0.516,0.898,1.031,1.797,1.547,2.695c0-1.219,0-2.43,0-3.648c0-2.922,0-5.844,0-8.766c0-3.523,0-7.039,0-10.562
				c0-3.055,0-6.109,0-9.164c0-1.484,0.023-2.977,0-4.461c0-0.023,0-0.039,0-0.062c0-1.102-0.594-2.141-1.547-2.695
				c-1.023-0.602-2.125-0.492-3.156,0c-1.078,0.516-2.156,1.039-3.234,1.555c-2.57,1.242-5.148,2.477-7.719,3.719
				c-3.109,1.5-6.227,3-9.336,4.5c-2.703,1.297-5.398,2.602-8.102,3.898c-1.305,0.625-2.625,1.234-3.914,1.883
				c-0.016,0.008-0.039,0.016-0.055,0.023c1.055,0,2.102,0,3.156,0c-1.078-0.516-2.156-1.039-3.234-1.555
				c-2.57-1.242-5.148-2.477-7.719-3.719c-3.109-1.5-6.227-3-9.336-4.5c-2.703-1.297-5.398-2.602-8.102-3.898
				c-1.305-0.625-2.609-1.266-3.914-1.883c-0.016-0.008-0.039-0.016-0.055-0.023c-1.031-0.492-2.133-0.602-3.156,0
				c-0.953,0.555-1.547,1.594-1.547,2.695c0,1.219,0,2.43,0,3.648c0,2.922,0,5.844,0,8.766c0,3.523,0,7.039,0,10.562
				c0,3.055,0,6.109,0,9.164c0,1.484-0.031,2.977,0,4.461c0,0.023,0,0.039,0,0.062c0.516-0.898,1.031-1.797,1.547-2.695
				c-0.008,0-0.008,0.008-0.016,0.008c-0.969,0.438-1.547,1.688-1.547,2.695c0,1.031,0.578,2.234,1.547,2.695
				c1.078,0.516,2.156,1.039,3.234,1.555c2.594,1.25,5.195,2.5,7.789,3.75c3.125,1.508,6.25,3.008,9.375,4.516
				c2.688,1.297,5.383,2.594,8.07,3.891c1.289,0.617,2.562,1.25,3.859,1.859c0.664,0.312,1.289,0.492,2.031,0.391
				c0.438-0.062,0.812-0.203,1.211-0.391c0.141-0.062,0.281-0.133,0.422-0.203c0.672-0.32,1.344-0.648,2.008-0.969
				c2.438-1.172,4.883-2.352,7.32-3.523c3.109-1.5,6.219-2.992,9.328-4.492c2.805-1.352,5.617-2.703,8.422-4.055
				c1.539-0.742,3.07-1.477,4.609-2.219c0.07-0.031,0.141-0.07,0.219-0.102c0.672-0.32,1.242-1.172,1.438-1.867
				c0.203-0.75,0.109-1.742-0.312-2.406c-0.43-0.664-1.07-1.258-1.867-1.438C132.344,55.125,131.586,55.258,130.789,55.641z"/>
		</g>
	</g>
	<g>
		<g>
			<path d="M103.125,73.914c0-1.219,0-2.445,0-3.664c0-2.906,0-5.812,0-8.719c0-3.539,0-7.086,0-10.625c0-3.047,0-6.102,0-9.148
				c0-1.484,0.023-2.969,0-4.445c0-0.023,0-0.039,0-0.062c0-1.633-1.438-3.203-3.125-3.125c-1.695,0.078-3.125,1.375-3.125,3.125
				c0,1.219,0,2.445,0,3.664c0,2.906,0,5.812,0,8.719c0,3.539,0,7.086,0,10.625c0,3.047,0,6.102,0,9.148
				c0,1.484-0.023,2.969,0,4.445c0,0.023,0,0.039,0,0.062c0,1.633,1.438,3.203,3.125,3.125
				C101.695,76.961,103.125,75.664,103.125,73.914L103.125,73.914z"/>
		</g>
	</g>
	<g>
		<g>
			<path d="M113.062,29.461c0,3.414-0.008,6.828-0.008,10.242c0,0.484,0,0.969,0,1.445c0,1.633,1.438,3.203,3.125,3.125
				c1.695-0.078,3.125-1.375,3.125-3.125c0-3.414,0.008-6.828,0.008-10.242c0-0.484,0-0.969,0-1.445
				c0-1.633-1.438-3.203-3.125-3.125C114.492,26.414,113.062,27.711,113.062,29.461L113.062,29.461z"/>
		</g>
	</g>
</g>
</svg>
