<?xml version="1.0" encoding="utf-8"?>
<!-- Generator: Adobe Illustrator 16.0.0, SVG Export Plug-In . SVG Version: 6.00 Build 0)  -->
<!DOCTYPE svg PUBLIC "-//W3C//DTD SVG 1.1//EN" "http://www.w3.org/Graphics/SVG/1.1/DTD/svg11.dtd">
<svg version="1.1" id="Layer_1" xmlns="http://www.w3.org/2000/svg" xmlns:xlink="http://www.w3.org/1999/xlink" x="0px" y="0px"
	 width="79.375px" height="63.5px" viewBox="60.312 8.25 79.375 63.5" enable-background="new 60.312 8.25 79.375 63.5"
	 xml:space="preserve">
<g>
	<path d="M119.844,47.938H100c-2.188,0-3.969,1.781-3.969,3.969s1.781,3.969,3.969,3.969h19.844c2.188,0,3.969-1.781,3.969-3.969
		S122.031,47.938,119.844,47.938z"/>
	<path d="M94.875,37.188L82.969,25.281c-1.547-1.547-4.062-1.547-5.609,0s-1.547,4.062,0,5.609l9.094,9.094l-9.109,9.109
		c-1.547,1.547-1.547,4.062,0,5.609c0.781,0.781,2.812,2.344,5.609,0l11.906-11.906C96.422,41.25,96.422,38.75,94.875,37.188z"/>
	<path d="M131.75,8.25h-63.5c-4.375,0-7.938,3.562-7.938,7.938v47.625c0,4.375,3.562,7.938,7.938,7.938h63.5
		c4.375,0,7.938-3.562,7.938-7.938V16.188C139.688,11.812,136.125,8.25,131.75,8.25z M68.25,63.812V16.188h63.5v47.625H68.25z"/>
</g>
</svg>
