<?xml version="1.0" encoding="utf-8"?>
<!-- Generator: Adobe Illustrator 16.0.0, SVG Export Plug-In . SVG Version: 6.00 Build 0)  -->
<!DOCTYPE svg PUBLIC "-//W3C//DTD SVG 1.1//EN" "http://www.w3.org/Graphics/SVG/1.1/DTD/svg11.dtd">
<svg version="1.1" id="Layer_1" xmlns="http://www.w3.org/2000/svg" xmlns:xlink="http://www.w3.org/1999/xlink" x="0px" y="0px"
	 width="154px" height="65px" viewBox="0 0 154 65" enable-background="new 0 0 154 65" xml:space="preserve">
<g>
	<path fill="#FFFFFF" d="M39.073,42h-3.111l-6.97-19h4.047l4.497,13.379L41.996,23h4.047L39.073,42z"/>
	<path fill="#FFFFFF" d="M49.267,19.252v-4.047h4.049v4.047H49.267z M49.379,42V23h3.823v19H49.379z"/>
	<path fill="#FFFFFF" d="M69.505,42v-1.725c-1.387,1.388-2.697,1.949-5.061,1.949c-2.361,0-3.935-0.562-5.096-1.725
		c-0.976-1.012-1.5-2.475-1.5-4.085c0-3.187,2.211-5.471,6.56-5.471h5.021v-1.349c0-2.398-1.199-3.561-4.16-3.561
		c-2.099,0-3.109,0.487-4.158,1.836l-2.51-2.359c1.799-2.099,3.672-2.736,6.819-2.736c5.209,0,7.832,2.211,7.832,6.521V42H69.505z
		 M69.431,33.605H64.97c-2.248,0-3.41,1.012-3.41,2.734c0,1.725,1.088,2.698,3.485,2.698c1.462,0,2.549-0.112,3.562-1.086
		c0.562-0.562,0.824-1.462,0.824-2.812V33.605z"/>
</g>
<g>
	<rect x="11" fill="#0BD691" width="6" height="42"/>
	<rect y="23" fill="#0BD691" width="6" height="42"/>
</g>
<g>
	<path fill="#FFFFFF" d="M96.102,42v-2.43c-1.646,2.194-3.487,2.665-5.604,2.665c-1.959,0-3.645-0.666-4.624-1.646
		c-1.92-1.92-2.429-5.055-2.429-8.032c0-2.978,0.509-6.113,2.429-8.033c0.979-0.979,2.665-1.646,4.624-1.646
		c2.116,0,3.958,0.47,5.604,2.665V14.101H98.1V42H96.102z M90.772,24.641c-4.624,0-5.329,3.997-5.329,7.916
		c0,3.918,0.705,7.915,5.329,7.915s5.329-3.997,5.329-7.915C96.102,28.638,95.396,24.641,90.772,24.641z"/>
	<path fill="#FFFFFF" d="M115.46,40.158c-1.333,1.332-3.135,2.077-5.251,2.077s-3.919-0.745-5.251-2.077
		c-1.998-1.998-2.351-4.897-2.351-7.602s0.353-5.604,2.351-7.602c1.332-1.332,3.135-2.077,5.251-2.077s3.918,0.745,5.251,2.077
		c1.998,1.999,2.351,4.898,2.351,7.602S117.458,38.16,115.46,40.158z M114.127,26.248c-1.019-1.019-2.39-1.607-3.918-1.607
		s-2.899,0.588-3.919,1.607c-1.567,1.567-1.685,4.114-1.685,6.309s0.117,4.741,1.685,6.309c1.02,1.019,2.391,1.606,3.919,1.606
		s2.899-0.588,3.918-1.606c1.567-1.567,1.686-4.114,1.686-6.309S115.694,27.815,114.127,26.248z"/>
	<path fill="#FFFFFF" d="M129.527,42.235c-5.133,0-8.307-3.684-8.307-9.679s3.174-9.679,8.307-9.679c2.586,0,4.193,0.666,6.23,2.899
		l-1.371,1.254c-1.607-1.802-2.861-2.39-4.859-2.39c-2.116,0-3.879,0.862-5.016,2.508c-0.94,1.372-1.293,2.861-1.293,5.408
		s0.353,4.036,1.293,5.407c1.137,1.646,2.899,2.508,5.016,2.508c1.998,0,3.252-0.588,4.859-2.391l1.371,1.254
		C133.721,41.569,132.113,42.235,129.527,42.235z"/>
	<path fill="#FFFFFF" d="M146.438,42.235c-3.292,0-5.722-0.862-7.642-2.704l1.372-1.371c1.488,1.567,3.487,2.312,6.19,2.312
		c3.684,0,5.683-1.293,5.683-3.84c0-1.959-1.137-2.939-3.605-3.174l-3.135-0.274c-3.801-0.313-5.682-1.999-5.682-4.938
		c0-3.252,2.664-5.368,6.779-5.368c2.586,0,4.976,0.745,6.622,1.999l-1.333,1.332c-1.449-1.058-3.213-1.606-5.289-1.606
		c-3.096,0-4.82,1.333-4.82,3.644c0,1.959,1.176,2.939,3.84,3.174l3.057,0.274c3.135,0.274,5.525,1.254,5.525,4.938
		C154,40.08,151.061,42.235,146.438,42.235z"/>
</g>
</svg>
